<svg xmlns="http://www.w3.org/2000/svg" width="2560" height="1440"><path d="M-223,-215L549,-216L808,-225Z" fill="#a63c3a" stroke="#a63c3a" stroke-width="1.51"/><path d="M1121,1600L671,1618L1241,1612Z" fill="#938fa8" stroke="#938fa8" stroke-width="1.51"/><path d="M671,1618L350,1672L1241,1612Z" fill="#92788a" stroke="#92788a" stroke-width="1.51"/><path d="M1020,-223L1314,-202L1692,-205Z" fill="#bc8184" stroke="#bc8184" stroke-width="1.51"/><path d="M1241,1612L350,1672L1848,1675Z" fill="#8b8da8" stroke="#8b8da8" stroke-width="1.51"/><path d="M808,-225L1020,-223L2011,-223Z" fill="#bc8283" stroke="#bc8283" stroke-width="1.51"/><path d="M1020,-223L1692,-205L2011,-223Z" fill="#ae7b80" stroke="#ae7b80" stroke-width="1.51"/><path d="M2128,1632L1848,1675L2378,1622Z" fill="#3b6f9f" stroke="#3b6f9f" stroke-width="1.51"/><path d="M2489,1583L2378,1622L2684,1586Z" fill="#1c599a" stroke="#1c599a" stroke-width="1.51"/><path d="M2293,-221L2576,-205L2788,-209Z" fill="#6b3e62" stroke="#6b3e62" stroke-width="1.51"/><path d="M2641,-61L2756,-40L2788,-209Z" fill="#743653" stroke="#743653" stroke-width="1.51"/><path d="M2619,1292L2731,1503L2794,1283Z" fill="#28669f" stroke="#28669f" stroke-width="1.51"/><path d="M2642,123L2595,271L2800,305Z" fill="#93677a" stroke="#93677a" stroke-width="1.51"/><path d="M2748,66L2642,123L2800,305Z" fill="#8b586b" stroke="#8b586b" stroke-width="1.51"/><path d="M2788,-209L2756,-40L2800,305Z" fill="#7e3f56" stroke="#7e3f56" stroke-width="1.51"/><path d="M2756,-40L2748,66L2800,305Z" fill="#854c60" stroke="#854c60" stroke-width="1.51"/><path d="M2378,1622L1848,1675L2805,1624Z" fill="#245f97" stroke="#245f97" stroke-width="1.51"/><path d="M2684,1586L2378,1622L2805,1624Z" fill="#164f8c" stroke="#164f8c" stroke-width="1.51"/><path d="M2731,1503L2684,1586L2805,1624Z" fill="#134a85" stroke="#134a85" stroke-width="1.51"/><path d="M2794,1283L2731,1503L2805,1624Z" fill="#1a5491" stroke="#1a5491" stroke-width="1.51"/><path d="M2677,837L2756,1020L2807,847Z" fill="#798fb4" stroke="#798fb4" stroke-width="1.51"/><path d="M2665,706L2677,837L2807,847Z" fill="#8597ba" stroke="#8597ba" stroke-width="1.51"/><path d="M2624,583L2665,706L2811,581Z" fill="#9295b2" stroke="#9295b2" stroke-width="1.51"/><path d="M2740,369L2607,453L2811,581Z" fill="#94859a" stroke="#94859a" stroke-width="1.51"/><path d="M2607,453L2624,583L2811,581Z" fill="#9691ab" stroke="#9691ab" stroke-width="1.51"/><path d="M2788,-209L2800,305L2811,581Z" fill="#895b6c" stroke="#895b6c" stroke-width="1.51"/><path d="M2800,305L2740,369L2811,581Z" fill="#90798a" stroke="#90798a" stroke-width="1.51"/><path d="M2619,1292L2794,1283L2813,1137Z" fill="#3d72a3" stroke="#3d72a3" stroke-width="1.51"/><path d="M2580,1153L2619,1292L2813,1137Z" fill="#4a7daf" stroke="#4a7daf" stroke-width="1.51"/><path d="M2807,847L2756,1020L2813,1137Z" fill="#6784aa" stroke="#6784aa" stroke-width="1.51"/><path d="M2794,1283L2805,1624L2813,1137Z" fill="#255f95" stroke="#255f95" stroke-width="1.51"/><path d="M2788,-209L2811,581L2815,666Z" fill="#8e6d7c" stroke="#8e6d7c" stroke-width="1.51"/><path d="M2811,581L2665,706L2815,666Z" fill="#8d91ad" stroke="#8d91ad" stroke-width="1.51"/><path d="M2665,706L2807,847L2815,666Z" fill="#8894b5" stroke="#8894b5" stroke-width="1.51"/><path d="M2807,847L2813,1137L2815,666Z" fill="#778aac" stroke="#778aac" stroke-width="1.51"/><path d="M2756,1020L2580,1153L2813,1137Z" fill="#5984af" stroke="#5984af" stroke-width="1.51"/><path d="M2595,271L2740,369L2800,305Z" fill="#947282" stroke="#947282" stroke-width="1.51"/><path d="M2677,837L2612,985L2756,1020Z" fill="#7693ba" stroke="#7693ba" stroke-width="1.51"/><path d="M2576,-205L2641,-61L2788,-209Z" fill="#6d3757" stroke="#6d3757" stroke-width="1.51"/><path d="M2619,1292L2575,1502L2731,1503Z" fill="#2464a3" stroke="#2464a3" stroke-width="1.51"/><path d="M2612,985L2580,1153L2756,1020Z" fill="#668eba" stroke="#668eba" stroke-width="1.51"/><path d="M2641,-61L2748,66L2756,-40Z" fill="#80415a" stroke="#80415a" stroke-width="1.51"/><path d="M2641,-61L2642,123L2748,66Z" fill="#874c64" stroke="#874c64" stroke-width="1.51"/><path d="M2595,271L2607,453L2740,369Z" fill="#9a7e92" stroke="#9a7e92" stroke-width="1.51"/><path d="M2575,1502L2684,1586L2731,1503Z" fill="#1a5697" stroke="#1a5697" stroke-width="1.51"/><path d="M1686,1629L1241,1612L1848,1675Z" fill="#778db2" stroke="#778db2" stroke-width="1.51"/><path d="M2503,1357L2575,1502L2619,1292Z" fill="#2c71b0" stroke="#2c71b0" stroke-width="1.51"/><path d="M2576,-205L2535,-156L2641,-61Z" fill="#774061" stroke="#774061" stroke-width="1.51"/><path d="M2641,-61L2496,-55L2642,123Z" fill="#8c4e6a" stroke="#8c4e6a" stroke-width="1.51"/><path d="M2489,832L2612,985L2677,837Z" fill="#849fc8" stroke="#849fc8" stroke-width="1.51"/><path d="M2665,706L2484,767L2677,837Z" fill="#8fa2c8" stroke="#8fa2c8" stroke-width="1.51"/><path d="M2484,767L2489,832L2677,837Z" fill="#8ea6cf" stroke="#8ea6cf" stroke-width="1.51"/><path d="M2575,1502L2489,1583L2684,1586Z" fill="#1b5a9b" stroke="#1b5a9b" stroke-width="1.51"/><path d="M2624,583L2484,767L2665,706Z" fill="#97a4c7" stroke="#97a4c7" stroke-width="1.51"/><path d="M2595,271L2518,267L2607,453Z" fill="#9f8195" stroke="#9f8195" stroke-width="1.51"/><path d="M2475,1021L2580,1153L2612,985Z" fill="#6b97c6" stroke="#6b97c6" stroke-width="1.51"/><path d="M2433,621L2484,767L2624,583Z" fill="#9da9cb" stroke="#9da9cb" stroke-width="1.51"/><path d="M2535,-156L2496,-55L2641,-61Z" fill="#844766" stroke="#844766" stroke-width="1.51"/><path d="M2518,267L2595,271L2642,123Z" fill="#9a6e84" stroke="#9a6e84" stroke-width="1.51"/><path d="M2456,170L2518,267L2642,123Z" fill="#9c6d85" stroke="#9c6d85" stroke-width="1.51"/><path d="M2496,-55L2456,170L2642,123Z" fill="#955e78" stroke="#955e78" stroke-width="1.51"/><path d="M2475,1021L2513,1150L2580,1153Z" fill="#6395c6" stroke="#6395c6" stroke-width="1.51"/><path d="M2518,267L2439,436L2607,453Z" fill="#a38da3" stroke="#a38da3" stroke-width="1.51"/><path d="M2439,436L2433,621L2607,453Z" fill="#a29fb8" stroke="#a29fb8" stroke-width="1.51"/><path d="M2489,832L2475,1021L2612,985Z" fill="#7fa2cd" stroke="#7fa2cd" stroke-width="1.51"/><path d="M2580,1153L2513,1150L2619,1292Z" fill="#4d86bb" stroke="#4d86bb" stroke-width="1.51"/><path d="M2513,1150L2503,1357L2619,1292Z" fill="#3f80ba" stroke="#3f80ba" stroke-width="1.51"/><path d="M2607,453L2433,621L2624,583Z" fill="#9e9ebc" stroke="#9e9ebc" stroke-width="1.51"/><path d="M2503,1357L2498,1506L2575,1502Z" fill="#276caf" stroke="#276caf" stroke-width="1.51"/><path d="M2498,1506L2489,1583L2575,1502Z" fill="#2163a6" stroke="#2163a6" stroke-width="1.51"/><path d="M2293,-221L2535,-156L2576,-205Z" fill="#734666" stroke="#734666" stroke-width="1.51"/><path d="M2333,889L2475,1021L2489,832Z" fill="#88abd2" stroke="#88abd2" stroke-width="1.51"/><path d="M2344,88L2456,170L2496,-55Z" fill="#99647a" stroke="#99647a" stroke-width="1.51"/><path d="M2322,1302L2503,1357L2513,1150Z" fill="#4287be" stroke="#4287be" stroke-width="1.51"/><path d="M2321,1152L2322,1302L2513,1150Z" fill="#5594c4" stroke="#5594c4" stroke-width="1.51"/><path d="M2293,-221L2496,-55L2535,-156Z" fill="#7e4c69" stroke="#7e4c69" stroke-width="1.51"/><path d="M1692,-205L1888,-199L2011,-223Z" fill="#9a707a" stroke="#9a707a" stroke-width="1.51"/><path d="M2433,621L2373,732L2484,767Z" fill="#9eb3d4" stroke="#9eb3d4" stroke-width="1.51"/><path d="M2322,1302L2276,1524L2498,1506Z" fill="#3279b6" stroke="#3279b6" stroke-width="1.51"/><path d="M2322,1302L2498,1506L2503,1357Z" fill="#3279b6" stroke="#3279b6" stroke-width="1.51"/><path d="M2475,1021L2321,1152L2513,1150Z" fill="#669cc9" stroke="#669cc9" stroke-width="1.51"/><path d="M2456,170L2354,216L2518,267Z" fill="#a17a8c" stroke="#a17a8c" stroke-width="1.51"/><path d="M2354,216L2439,436L2518,267Z" fill="#a68899" stroke="#a68899" stroke-width="1.51"/><path d="M2293,-221L2278,-35L2496,-55Z" fill="#8b556d" stroke="#8b556d" stroke-width="1.51"/><path d="M2315,544L2433,621L2439,436Z" fill="#a6a9c1" stroke="#a6a9c1" stroke-width="1.51"/><path d="M2278,-35L2344,88L2496,-55Z" fill="#975f75" stroke="#975f75" stroke-width="1.51"/><path d="M2378,1622L2489,1583L2498,1506Z" fill="#2262a1" stroke="#2262a1" stroke-width="1.51"/><path d="M2276,1524L2378,1622L2498,1506Z" fill="#2869a7" stroke="#2869a7" stroke-width="1.51"/><path d="M2333,889L2301,977L2475,1021Z" fill="#82acd2" stroke="#82acd2" stroke-width="1.51"/><path d="M2484,767L2373,732L2489,832Z" fill="#96b0d4" stroke="#96b0d4" stroke-width="1.51"/><path d="M2373,732L2333,889L2489,832Z" fill="#94b2d5" stroke="#94b2d5" stroke-width="1.51"/><path d="M2354,216L2305,462L2439,436Z" fill="#a997a6" stroke="#a997a6" stroke-width="1.51"/><path d="M2301,977L2321,1152L2475,1021Z" fill="#74a6cf" stroke="#74a6cf" stroke-width="1.51"/><path d="M2305,462L2315,544L2439,436Z" fill="#a8a6ba" stroke="#a8a6ba" stroke-width="1.51"/><path d="M2344,88L2354,216L2456,170Z" fill="#a17485" stroke="#a17485" stroke-width="1.51"/><path d="M2315,544L2373,732L2433,621Z" fill="#a3b2cd" stroke="#a3b2cd" stroke-width="1.51"/><path d="M1484,1595L1241,1612L1686,1629Z" fill="#8194b9" stroke="#8194b9" stroke-width="1.51"/><path d="M2025,1621L1848,1675L2128,1632Z" fill="#4b77a4" stroke="#4b77a4" stroke-width="1.51"/><path d="M2223,591L2234,711L2315,544Z" fill="#a8bad0" stroke="#a8bad0" stroke-width="1.51"/><path d="M2230,1505L2276,1524L2322,1302Z" fill="#367fb9" stroke="#367fb9" stroke-width="1.51"/><path d="M2220,237L2305,462L2354,216Z" fill="#ac939d" stroke="#ac939d" stroke-width="1.51"/><path d="M2344,88L2221,160L2354,216Z" fill="#a47a87" stroke="#a47a87" stroke-width="1.51"/><path d="M2234,711L2333,889L2373,732Z" fill="#9cbad9" stroke="#9cbad9" stroke-width="1.51"/><path d="M2315,544L2234,711L2373,732Z" fill="#a4b9d3" stroke="#a4b9d3" stroke-width="1.51"/><path d="M2276,1524L2128,1632L2378,1622Z" fill="#2c6ca3" stroke="#2c6ca3" stroke-width="1.51"/><path d="M2011,-223L2175,-170L2293,-221Z" fill="#815c70" stroke="#815c70" stroke-width="1.51"/><path d="M2175,-170L2278,-35L2293,-221Z" fill="#875b6f" stroke="#875b6f" stroke-width="1.51"/><path d="M2220,237L2169,465L2305,462Z" fill="#afa4ad" stroke="#afa4ad" stroke-width="1.51"/><path d="M2301,977L2168,1127L2321,1152Z" fill="#71aad0" stroke="#71aad0" stroke-width="1.51"/><path d="M2146,1361L2230,1505L2322,1302Z" fill="#3c88be" stroke="#3c88be" stroke-width="1.51"/><path d="M2234,711L2158,864L2333,889Z" fill="#9abedb" stroke="#9abedb" stroke-width="1.51"/><path d="M2221,160L2220,237L2354,216Z" fill="#a88590" stroke="#a88590" stroke-width="1.51"/><path d="M2321,1152L2168,1127L2322,1302Z" fill="#5b9dc9" stroke="#5b9dc9" stroke-width="1.51"/><path d="M2278,-35L2221,160L2344,88Z" fill="#a0707f" stroke="#a0707f" stroke-width="1.51"/><path d="M2168,1127L2146,1361L2322,1302Z" fill="#4f99c6" stroke="#4f99c6" stroke-width="1.51"/><path d="M2158,864L2301,977L2333,889Z" fill="#90b8d8" stroke="#90b8d8" stroke-width="1.51"/><path d="M2157,-39L2221,160L2278,-35Z" fill="#a06f7d" stroke="#a06f7d" stroke-width="1.51"/><path d="M2133,988L2168,1127L2301,977Z" fill="#7fb4d5" stroke="#7fb4d5" stroke-width="1.51"/><path d="M2305,462L2223,591L2315,544Z" fill="#aab3c5" stroke="#aab3c5" stroke-width="1.51"/><path d="M2169,465L2223,591L2305,462Z" fill="#adb3c2" stroke="#adb3c2" stroke-width="1.51"/><path d="M2230,1505L2128,1632L2276,1524Z" fill="#3375ad" stroke="#3375ad" stroke-width="1.51"/><path d="M2158,864L2133,988L2301,977Z" fill="#8ebbd9" stroke="#8ebbd9" stroke-width="1.51"/><path d="M2175,-170L2157,-39L2278,-35Z" fill="#976274" stroke="#976274" stroke-width="1.51"/><path d="M2042,1293L2146,1361L2168,1127Z" fill="#5da1cb" stroke="#5da1cb" stroke-width="1.51"/><path d="M2029,282L2169,465L2220,237Z" fill="#b7a3a6" stroke="#b7a3a6" stroke-width="1.51"/><path d="M2157,-39L2042,155L2221,160Z" fill="#ab7e86" stroke="#ab7e86" stroke-width="1.51"/><path d="M2146,1361L2083,1445L2230,1505Z" fill="#4589be" stroke="#4589be" stroke-width="1.51"/><path d="M2223,591L1999,717L2234,711Z" fill="#afc6da" stroke="#afc6da" stroke-width="1.51"/><path d="M1999,717L2158,864L2234,711Z" fill="#abcae0" stroke="#abcae0" stroke-width="1.51"/><path d="M2002,557L1999,717L2223,591Z" fill="#b9c9d8" stroke="#b9c9d8" stroke-width="1.51"/><path d="M2083,1445L2128,1632L2230,1505Z" fill="#3f7eb5" stroke="#3f7eb5" stroke-width="1.51"/><path d="M1999,717L2082,870L2158,864Z" fill="#aacbe2" stroke="#aacbe2" stroke-width="1.51"/><path d="M2042,155L2220,237L2221,160Z" fill="#af8a91" stroke="#af8a91" stroke-width="1.51"/><path d="M2169,465L2002,557L2223,591Z" fill="#b6bfcb" stroke="#b6bfcb" stroke-width="1.51"/><path d="M2042,155L2029,282L2220,237Z" fill="#b79599" stroke="#b79599" stroke-width="1.51"/><path d="M2083,1445L2025,1621L2128,1632Z" fill="#467db1" stroke="#467db1" stroke-width="1.51"/><path d="M1990,-16L2042,155L2157,-39Z" fill="#af7b83" stroke="#af7b83" stroke-width="1.51"/><path d="M2011,-223L1990,-16L2157,-39Z" fill="#a26d79" stroke="#a26d79" stroke-width="1.51"/><path d="M2082,870L2133,988L2158,864Z" fill="#9dc4de" stroke="#9dc4de" stroke-width="1.51"/><path d="M1991,1185L2042,1293L2168,1127Z" fill="#6facd1" stroke="#6facd1" stroke-width="1.51"/><path d="M2133,988L1992,1063L2168,1127Z" fill="#86bad9" stroke="#86bad9" stroke-width="1.51"/><path d="M2029,282L1990,417L2169,465Z" fill="#bfb1b4" stroke="#bfb1b4" stroke-width="1.51"/><path d="M2011,-223L2157,-39L2175,-170Z" fill="#916474" stroke="#916474" stroke-width="1.51"/><path d="M1990,417L2002,557L2169,465Z" fill="#bfbec5" stroke="#bfbec5" stroke-width="1.51"/><path d="M1992,1063L1991,1185L2168,1127Z" fill="#80b7d7" stroke="#80b7d7" stroke-width="1.51"/><path d="M2042,1293L2083,1445L2146,1361Z" fill="#5396c6" stroke="#5396c6" stroke-width="1.51"/><path d="M2082,870L1992,1063L2133,988Z" fill="#98c3de" stroke="#98c3de" stroke-width="1.51"/><path d="M1999,717L1874,822L2082,870Z" fill="#b6d4e6" stroke="#b6d4e6" stroke-width="1.51"/><path d="M1874,822L1992,1063L2082,870Z" fill="#aacee4" stroke="#aacee4" stroke-width="1.51"/><path d="M2042,1293L1881,1435L2083,1445Z" fill="#5d9ac8" stroke="#5d9ac8" stroke-width="1.51"/><path d="M1881,1435L2025,1621L2083,1445Z" fill="#578dc2" stroke="#578dc2" stroke-width="1.51"/><path d="M1314,-202L1415,-178L1692,-205Z" fill="#b88083" stroke="#b88083" stroke-width="1.51"/><path d="M1888,-199L1866,-59L1990,-16Z" fill="#af777e" stroke="#af777e" stroke-width="1.51"/><path d="M1874,822L1828,1071L1992,1063Z" fill="#a8cfe4" stroke="#a8cfe4" stroke-width="1.51"/><path d="M1914,718L1874,822L1999,717Z" fill="#c1dbe9" stroke="#c1dbe9" stroke-width="1.51"/><path d="M1914,718L1999,717L2002,557Z" fill="#c1d5e1" stroke="#c1d5e1" stroke-width="1.51"/><path d="M1888,-199L1990,-16L2011,-223Z" fill="#9f6f7a" stroke="#9f6f7a" stroke-width="1.51"/><path d="M1991,1185L1860,1303L2042,1293Z" fill="#70add1" stroke="#70add1" stroke-width="1.51"/><path d="M1860,1303L1881,1435L2042,1293Z" fill="#69a5cd" stroke="#69a5cd" stroke-width="1.51"/><path d="M1990,-16L1837,145L2042,155Z" fill="#bd8c8e" stroke="#bd8c8e" stroke-width="1.51"/><path d="M1837,145L1913,223L2042,155Z" fill="#c49a98" stroke="#c49a98" stroke-width="1.51"/><path d="M1913,223L2029,282L2042,155Z" fill="#c09d9d" stroke="#c09d9d" stroke-width="1.51"/><path d="M1913,223L1830,394L1990,417Z" fill="#cdb8b2" stroke="#cdb8b2" stroke-width="1.51"/><path d="M1858,569L1914,718L2002,557Z" fill="#c8d5dd" stroke="#c8d5dd" stroke-width="1.51"/><path d="M1881,1435L1848,1675L2025,1621Z" fill="#5a88b5" stroke="#5a88b5" stroke-width="1.51"/><path d="M1913,223L1990,417L2029,282Z" fill="#c6adaa" stroke="#c6adaa" stroke-width="1.51"/><path d="M1857,1201L1860,1303L1991,1185Z" fill="#7db6d6" stroke="#7db6d6" stroke-width="1.51"/><path d="M1857,1201L1991,1185L1992,1063Z" fill="#87bdda" stroke="#87bdda" stroke-width="1.51"/><path d="M1990,417L1858,569L2002,557Z" fill="#c8cbcf" stroke="#c8cbcf" stroke-width="1.51"/><path d="M1830,394L1858,569L1990,417Z" fill="#cec8c8" stroke="#cec8c8" stroke-width="1.51"/><path d="M1866,-59L1837,145L1990,-16Z" fill="#be8688" stroke="#be8688" stroke-width="1.51"/><path d="M1828,1071L1857,1201L1992,1063Z" fill="#94c6df" stroke="#94c6df" stroke-width="1.51"/><path d="M1745,992L1828,1071L1874,822Z" fill="#b4d6e7" stroke="#b4d6e7" stroke-width="1.51"/><path d="M936,1583L671,1618L1121,1600Z" fill="#9589a0" stroke="#9589a0" stroke-width="1.51"/><path d="M1830,394L1783,435L1858,569Z" fill="#d4cdcb" stroke="#d4cdcb" stroke-width="1.51"/><path d="M1734,0L1837,145L1866,-59Z" fill="#c58b8b" stroke="#c58b8b" stroke-width="1.51"/><path d="M1741,1485L1848,1675L1881,1435Z" fill="#6993c1" stroke="#6993c1" stroke-width="1.51"/><path d="M1837,145L1702,245L1913,223Z" fill="#cfa59f" stroke="#cfa59f" stroke-width="1.51"/><path d="M1702,245L1830,394L1913,223Z" fill="#d4b3ac" stroke="#d4b3ac" stroke-width="1.51"/><path d="M1858,569L1774,598L1914,718Z" fill="#cfdae1" stroke="#cfdae1" stroke-width="1.51"/><path d="M1774,598L1761,771L1914,718Z" fill="#d0e0ea" stroke="#d0e0ea" stroke-width="1.51"/><path d="M1761,771L1874,822L1914,718Z" fill="#c7deeb" stroke="#c7deeb" stroke-width="1.51"/><path d="M1741,1485L1686,1629L1848,1675Z" fill="#6a8cb6" stroke="#6a8cb6" stroke-width="1.51"/><path d="M1690,866L1745,992L1874,822Z" fill="#c2ddec" stroke="#c2ddec" stroke-width="1.51"/><path d="M1860,1303L1743,1334L1881,1435Z" fill="#74a9d0" stroke="#74a9d0" stroke-width="1.51"/><path d="M1692,-205L1866,-59L1888,-199Z" fill="#aa777d" stroke="#aa777d" stroke-width="1.51"/><path d="M1761,771L1690,866L1874,822Z" fill="#c9e0ed" stroke="#c9e0ed" stroke-width="1.51"/><path d="M1743,1334L1741,1485L1881,1435Z" fill="#75a4ce" stroke="#75a4ce" stroke-width="1.51"/><path d="M1783,435L1774,598L1858,569Z" fill="#d6d6d7" stroke="#d6d6d7" stroke-width="1.51"/><path d="M1857,1201L1743,1334L1860,1303Z" fill="#7db3d5" stroke="#7db3d5" stroke-width="1.51"/><path d="M1692,-205L1734,0L1866,-59Z" fill="#bc7f81" stroke="#bc7f81" stroke-width="1.51"/><path d="M1828,1071L1685,1172L1857,1201Z" fill="#98c6df" stroke="#98c6df" stroke-width="1.51"/><path d="M1708,153L1702,245L1837,145Z" fill="#d4a49e" stroke="#d4a49e" stroke-width="1.51"/><path d="M1685,1172L1743,1334L1857,1201Z" fill="#8bbcda" stroke="#8bbcda" stroke-width="1.51"/><path d="M1734,0L1708,153L1837,145Z" fill="#ce9794" stroke="#ce9794" stroke-width="1.51"/><path d="M1702,245L1783,435L1830,394Z" fill="#d9c1b9" stroke="#d9c1b9" stroke-width="1.51"/><path d="M1745,992L1685,1172L1828,1071Z" fill="#a8cfe4" stroke="#a8cfe4" stroke-width="1.51"/><path d="M1692,-205L1606,-140L1734,0Z" fill="#bd8083" stroke="#bd8083" stroke-width="1.51"/><path d="M1685,1172L1624,1313L1743,1334Z" fill="#8dbbd9" stroke="#8dbbd9" stroke-width="1.51"/><path d="M1627,437L1561,563L1774,598Z" fill="#e3dedb" stroke="#e3dedb" stroke-width="1.51"/><path d="M1596,771L1761,771L1774,598Z" fill="#d9e7ef" stroke="#d9e7ef" stroke-width="1.51"/><path d="M1561,563L1596,771L1774,598Z" fill="#e2e6e9" stroke="#e2e6e9" stroke-width="1.51"/><path d="M1627,437L1774,598L1783,435Z" fill="#ddd4d1" stroke="#ddd4d1" stroke-width="1.51"/><path d="M1702,245L1627,437L1783,435Z" fill="#dfc6bd" stroke="#dfc6bd" stroke-width="1.51"/><path d="M1628,1586L1686,1629L1741,1485Z" fill="#7594be" stroke="#7594be" stroke-width="1.51"/><path d="M1562,306L1627,437L1702,245Z" fill="#e5c3b7" stroke="#e5c3b7" stroke-width="1.51"/><path d="M1624,1313L1579,1468L1741,1485Z" fill="#84aad1" stroke="#84aad1" stroke-width="1.51"/><path d="M1624,1313L1741,1485L1743,1334Z" fill="#80add2" stroke="#80add2" stroke-width="1.51"/><path d="M1568,970L1685,1172L1745,992Z" fill="#b6d7e8" stroke="#b6d7e8" stroke-width="1.51"/><path d="M1596,771L1690,866L1761,771Z" fill="#d4e5f0" stroke="#d4e5f0" stroke-width="1.51"/><path d="M1568,970L1609,1175L1685,1172Z" fill="#b0d4e6" stroke="#b0d4e6" stroke-width="1.51"/><path d="M1606,-140L1562,-77L1734,0Z" fill="#ca8686" stroke="#ca8686" stroke-width="1.51"/><path d="M1556,164L1708,153L1734,0Z" fill="#d69d97" stroke="#d69d97" stroke-width="1.51"/><path d="M1690,866L1568,970L1745,992Z" fill="#c6dfed" stroke="#c6dfed" stroke-width="1.51"/><path d="M1579,1468L1628,1586L1741,1485Z" fill="#7d9eca" stroke="#7d9eca" stroke-width="1.51"/><path d="M1562,-77L1556,164L1734,0Z" fill="#d59490" stroke="#d59490" stroke-width="1.51"/><path d="M1609,1175L1624,1313L1685,1172Z" fill="#9bc4de" stroke="#9bc4de" stroke-width="1.51"/><path d="M1628,1586L1484,1595L1686,1629Z" fill="#7993b9" stroke="#7993b9" stroke-width="1.51"/><path d="M1415,-178L1606,-140L1692,-205Z" fill="#b87f83" stroke="#b87f83" stroke-width="1.51"/><path d="M1556,164L1702,245L1708,153Z" fill="#dcaaa2" stroke="#dcaaa2" stroke-width="1.51"/><path d="M-223,-215L350,-178L549,-216Z" fill="#a12c31" stroke="#a12c31" stroke-width="1.51"/><path d="M1561,858L1568,970L1690,866Z" fill="#d2e5f0" stroke="#d2e5f0" stroke-width="1.51"/><path d="M1556,164L1562,306L1702,245Z" fill="#e3b5aa" stroke="#e3b5aa" stroke-width="1.51"/><path d="M1596,771L1561,858L1690,866Z" fill="#d7e8f1" stroke="#d7e8f1" stroke-width="1.51"/><path d="M1416,123L1556,164L1562,-77Z" fill="#de9d95" stroke="#de9d95" stroke-width="1.51"/><path d="M1443,982L1482,1201L1568,970Z" fill="#c2ddeb" stroke="#c2ddeb" stroke-width="1.51"/><path d="M1561,563L1463,760L1596,771Z" fill="#e8eef2" stroke="#e8eef2" stroke-width="1.51"/><path d="M1568,970L1482,1201L1609,1175Z" fill="#b4d5e7" stroke="#b4d5e7" stroke-width="1.51"/><path d="M1397,1358L1579,1468L1624,1313Z" fill="#90b3d6" stroke="#90b3d6" stroke-width="1.51"/><path d="M1609,1175L1482,1201L1624,1313Z" fill="#9fc6df" stroke="#9fc6df" stroke-width="1.51"/><path d="M1562,306L1483,384L1627,437Z" fill="#ebcdc1" stroke="#ebcdc1" stroke-width="1.51"/><path d="M1483,384L1561,563L1627,437Z" fill="#ebd8d0" stroke="#ebd8d0" stroke-width="1.51"/><path d="M1579,1468L1484,1595L1628,1586Z" fill="#819cc4" stroke="#819cc4" stroke-width="1.51"/><path d="M1482,1201L1397,1358L1624,1313Z" fill="#99c0dc" stroke="#99c0dc" stroke-width="1.51"/><path d="M1020,-223L1145,-188L1314,-202Z" fill="#c07e7c" stroke="#c07e7c" stroke-width="1.51"/><path d="M1439,-79L1416,123L1562,-77Z" fill="#da928d" stroke="#da928d" stroke-width="1.51"/><path d="M1415,-178L1562,-77L1606,-140Z" fill="#c48485" stroke="#c48485" stroke-width="1.51"/><path d="M1483,384L1423,535L1561,563Z" fill="#efdfd7" stroke="#efdfd7" stroke-width="1.51"/><path d="M1397,1358L1401,1457L1579,1468Z" fill="#92afd4" stroke="#92afd4" stroke-width="1.51"/><path d="M1463,760L1561,858L1596,771Z" fill="#e0ecf3" stroke="#e0ecf3" stroke-width="1.51"/><path d="M1423,535L1463,760L1561,563Z" fill="#eeeae9" stroke="#eeeae9" stroke-width="1.51"/><path d="M1556,164L1395,310L1562,306Z" fill="#eabcae" stroke="#eabcae" stroke-width="1.51"/><path d="M1415,-178L1439,-79L1562,-77Z" fill="#cb8786" stroke="#cb8786" stroke-width="1.51"/><path d="M1561,858L1443,982L1568,970Z" fill="#d2e5f0" stroke="#d2e5f0" stroke-width="1.51"/><path d="M1401,1457L1484,1595L1579,1468Z" fill="#8aa4ce" stroke="#8aa4ce" stroke-width="1.51"/><path d="M1416,123L1395,310L1556,164Z" fill="#e9b2a6" stroke="#e9b2a6" stroke-width="1.51"/><path d="M1388,924L1443,982L1561,858Z" fill="#d8e8f1" stroke="#d8e8f1" stroke-width="1.51"/><path d="M1395,310L1483,384L1562,306Z" fill="#efc9ba" stroke="#efc9ba" stroke-width="1.51"/><path d="M1463,760L1388,924L1561,858Z" fill="#dfebf2" stroke="#dfebf2" stroke-width="1.51"/><path d="M1327,227L1395,310L1416,123Z" fill="#eeb8aa" stroke="#eeb8aa" stroke-width="1.51"/><path d="M1323,89L1416,123L1439,-79Z" fill="#e29c94" stroke="#e29c94" stroke-width="1.51"/><path d="M1423,535L1273,703L1463,760Z" fill="#f2f0f0" stroke="#f2f0f0" stroke-width="1.51"/><path d="M1320,1065L1258,1139L1482,1201Z" fill="#bdd8e8" stroke="#bdd8e8" stroke-width="1.51"/><path d="M1315,1355L1397,1358L1482,1201Z" fill="#9dc0dc" stroke="#9dc0dc" stroke-width="1.51"/><path d="M1258,1139L1315,1355L1482,1201Z" fill="#adcbe1" stroke="#adcbe1" stroke-width="1.51"/><path d="M1443,982L1320,1065L1482,1201Z" fill="#c2dceb" stroke="#c2dceb" stroke-width="1.51"/><path d="M1395,310L1423,535L1483,384Z" fill="#f2d5c8" stroke="#f2d5c8" stroke-width="1.51"/><path d="M1401,1457L1241,1612L1484,1595Z" fill="#8da0c5" stroke="#8da0c5" stroke-width="1.51"/><path d="M1248,602L1273,703L1423,535Z" fill="#f7eee9" stroke="#f7eee9" stroke-width="1.51"/><path d="M1395,310L1231,404L1423,535Z" fill="#f7d8ca" stroke="#f7d8ca" stroke-width="1.51"/><path d="M1283,903L1388,924L1463,760Z" fill="#e3edf4" stroke="#e3edf4" stroke-width="1.51"/><path d="M1273,703L1283,903L1463,760Z" fill="#edf2f6" stroke="#edf2f6" stroke-width="1.51"/><path d="M1231,6L1323,89L1439,-79Z" fill="#e29891" stroke="#e29891" stroke-width="1.51"/><path d="M1415,-178L1314,-202L1439,-79Z" fill="#c58585" stroke="#c58585" stroke-width="1.51"/><path d="M1388,924L1320,1065L1443,982Z" fill="#d2e5ef" stroke="#d2e5ef" stroke-width="1.51"/><path d="M1314,-202L1231,6L1439,-79Z" fill="#d68c88" stroke="#d68c88" stroke-width="1.51"/><path d="M1242,1443L1241,1612L1401,1457Z" fill="#97aad1" stroke="#97aad1" stroke-width="1.51"/><path d="M1323,89L1327,227L1416,123Z" fill="#ebac9f" stroke="#ebac9f" stroke-width="1.51"/><path d="M1231,404L1248,602L1423,535Z" fill="#fae7dd" stroke="#fae7dd" stroke-width="1.51"/><path d="M1397,1358L1315,1355L1401,1457Z" fill="#9ab7d7" stroke="#9ab7d7" stroke-width="1.51"/><path d="M1283,903L1320,1065L1388,924Z" fill="#dae8f1" stroke="#dae8f1" stroke-width="1.51"/><path d="M1315,1355L1242,1443L1401,1457Z" fill="#9bb5d6" stroke="#9bb5d6" stroke-width="1.51"/><path d="M1327,227L1231,404L1395,310Z" fill="#f7cab8" stroke="#f7cab8" stroke-width="1.51"/><path d="M1231,404L1168,463L1248,602Z" fill="#fbe1d3" stroke="#fbe1d3" stroke-width="1.51"/><path d="M1168,463L1171,563L1248,602Z" fill="#fbe6da" stroke="#fbe6da" stroke-width="1.51"/><path d="M1273,703L1161,749L1283,903Z" fill="#f1f2f3" stroke="#f1f2f3" stroke-width="1.51"/><path d="M1145,-188L1231,6L1314,-202Z" fill="#d08884" stroke="#d08884" stroke-width="1.51"/><path d="M1258,1139L1134,1216L1315,1355Z" fill="#b2cbde" stroke="#b2cbde" stroke-width="1.51"/><path d="M1283,903L1156,989L1320,1065Z" fill="#dae7ee" stroke="#dae7ee" stroke-width="1.51"/><path d="M1136,293L1231,404L1327,227Z" fill="#f8c8b4" stroke="#f8c8b4" stroke-width="1.51"/><path d="M1323,89L1122,160L1327,227Z" fill="#f0afa0" stroke="#f0afa0" stroke-width="1.51"/><path d="M1122,160L1136,293L1327,227Z" fill="#f4b8a6" stroke="#f4b8a6" stroke-width="1.51"/><path d="M1134,1216L1094,1311L1315,1355Z" fill="#aac1d7" stroke="#aac1d7" stroke-width="1.51"/><path d="M1231,6L1122,160L1323,89Z" fill="#eaa395" stroke="#eaa395" stroke-width="1.51"/><path d="M1156,989L1258,1139L1320,1065Z" fill="#cee0ea" stroke="#cee0ea" stroke-width="1.51"/><path d="M1094,1311L1242,1443L1315,1355Z" fill="#a3b9d4" stroke="#a3b9d4" stroke-width="1.51"/><path d="M1145,-188L1081,-62L1231,6Z" fill="#da8980" stroke="#da8980" stroke-width="1.51"/><path d="M1121,1600L1241,1612L1242,1443Z" fill="#95a0c1" stroke="#95a0c1" stroke-width="1.51"/><path d="M1103,1468L1121,1600L1242,1443Z" fill="#9ba5c8" stroke="#9ba5c8" stroke-width="1.51"/><path d="M1161,749L1121,904L1283,903Z" fill="#ebedee" stroke="#ebedee" stroke-width="1.51"/><path d="M1121,904L1156,989L1283,903Z" fill="#e3e9ec" stroke="#e3e9ec" stroke-width="1.51"/><path d="M1248,602L1161,749L1273,703Z" fill="#f9f2ef" stroke="#f9f2ef" stroke-width="1.51"/><path d="M1094,1311L1103,1468L1242,1443Z" fill="#a2b1cd" stroke="#a2b1cd" stroke-width="1.51"/><path d="M1171,563L1161,749L1248,602Z" fill="#faede6" stroke="#faede6" stroke-width="1.51"/><path d="M1156,989L1134,1216L1258,1139Z" fill="#c7d9e3" stroke="#c7d9e3" stroke-width="1.51"/><path d="M1031,1137L1134,1216L1156,989Z" fill="#c9d6dd" stroke="#c9d6dd" stroke-width="1.51"/><path d="M1136,293L1168,463L1231,404Z" fill="#fbd1be" stroke="#fbd1be" stroke-width="1.51"/><path d="M1081,-62L1122,160L1231,6Z" fill="#e6988a" stroke="#e6988a" stroke-width="1.51"/><path d="M818,1571L671,1618L936,1583Z" fill="#978397" stroke="#978397" stroke-width="1.51"/><path d="M1081,-62L980,126L1122,160Z" fill="#e99a88" stroke="#e99a88" stroke-width="1.51"/><path d="M1008,850L1121,904L1161,749Z" fill="#efeae7" stroke="#efeae7" stroke-width="1.51"/><path d="M1136,293L961,385L1168,463Z" fill="#faccb6" stroke="#faccb6" stroke-width="1.51"/><path d="M975,703L1161,749L1171,563Z" fill="#faebe3" stroke="#faebe3" stroke-width="1.51"/><path d="M1168,463L928,546L1171,563Z" fill="#fce0d0" stroke="#fce0d0" stroke-width="1.51"/><path d="M928,546L975,703L1171,563Z" fill="#fce3d5" stroke="#fce3d5" stroke-width="1.51"/><path d="M961,385L928,546L1168,463Z" fill="#fcd5c0" stroke="#fcd5c0" stroke-width="1.51"/><path d="M975,703L1008,850L1161,749Z" fill="#f6ebe4" stroke="#f6ebe4" stroke-width="1.51"/><path d="M1009,-59L980,126L1081,-62Z" fill="#e38e7e" stroke="#e38e7e" stroke-width="1.51"/><path d="M1121,904L928,1043L1156,989Z" fill="#dedfe1" stroke="#dedfe1" stroke-width="1.51"/><path d="M928,1043L1031,1137L1156,989Z" fill="#d3d8db" stroke="#d3d8db" stroke-width="1.51"/><path d="M1122,160L959,220L1136,293Z" fill="#f4b39c" stroke="#f4b39c" stroke-width="1.51"/><path d="M1020,-223L1081,-62L1145,-188Z" fill="#c97f79" stroke="#c97f79" stroke-width="1.51"/><path d="M1094,1311L991,1309L1103,1468Z" fill="#a7b3ca" stroke="#a7b3ca" stroke-width="1.51"/><path d="M1103,1468L972,1477L1121,1600Z" fill="#9ca0bf" stroke="#9ca0bf" stroke-width="1.51"/><path d="M1008,850L928,1043L1121,904Z" fill="#e5e1df" stroke="#e5e1df" stroke-width="1.51"/><path d="M959,220L961,385L1136,293Z" fill="#f8bda3" stroke="#f8bda3" stroke-width="1.51"/><path d="M991,1309L1094,1311L1134,1216Z" fill="#afbfd0" stroke="#afbfd0" stroke-width="1.51"/><path d="M1031,1137L991,1309L1134,1216Z" fill="#b9c5d2" stroke="#b9c5d2" stroke-width="1.51"/><path d="M1020,-223L1009,-59L1081,-62Z" fill="#d28177" stroke="#d28177" stroke-width="1.51"/><path d="M991,1309L972,1477L1103,1468Z" fill="#a4abc4" stroke="#a4abc4" stroke-width="1.51"/><path d="M972,1477L936,1583L1121,1600Z" fill="#9998b3" stroke="#9998b3" stroke-width="1.51"/><path d="M980,126L959,220L1122,160Z" fill="#f0a691" stroke="#f0a691" stroke-width="1.51"/><path d="M-223,-215L-112,-179L126,-150Z" fill="#8f0b26" stroke="#8f0b26" stroke-width="1.51"/><path d="M-223,-215L126,-150L350,-178Z" fill="#9e1b2b" stroke="#9e1b2b" stroke-width="1.51"/><path d="M867,967L928,1043L1008,850Z" fill="#e3dbd6" stroke="#e3dbd6" stroke-width="1.51"/><path d="M788,-61L980,126L1009,-59Z" fill="#e28876" stroke="#e28876" stroke-width="1.51"/><path d="M808,-225L1009,-59L1020,-223Z" fill="#c6786e" stroke="#c6786e" stroke-width="1.51"/><path d="M865,1122L991,1309L1031,1137Z" fill="#bfc5cd" stroke="#bfc5cd" stroke-width="1.51"/><path d="M928,1043L865,1122L1031,1137Z" fill="#cecfd1" stroke="#cecfd1" stroke-width="1.51"/><path d="M788,-61L838,145L980,126Z" fill="#e68d77" stroke="#e68d77" stroke-width="1.51"/><path d="M975,703L853,705L1008,850Z" fill="#f8e6dc" stroke="#f8e6dc" stroke-width="1.51"/><path d="M808,-225L788,-61L1009,-59Z" fill="#cf7568" stroke="#cf7568" stroke-width="1.51"/><path d="M959,220L853,264L961,385Z" fill="#f6b59a" stroke="#f6b59a" stroke-width="1.51"/><path d="M776,1363L972,1477L991,1309Z" fill="#a8a8bc" stroke="#a8a8bc" stroke-width="1.51"/><path d="M808,865L867,967L1008,850Z" fill="#ebdbd4" stroke="#ebdbd4" stroke-width="1.51"/><path d="M853,705L808,865L1008,850Z" fill="#f3dfd5" stroke="#f3dfd5" stroke-width="1.51"/><path d="M820,610L853,705L928,546Z" fill="#fcd9c7" stroke="#fcd9c7" stroke-width="1.51"/><path d="M845,390L928,546L961,385Z" fill="#fbcbb2" stroke="#fbcbb2" stroke-width="1.51"/><path d="M776,1363L852,1508L972,1477Z" fill="#a49cb3" stroke="#a49cb3" stroke-width="1.51"/><path d="M928,546L853,705L975,703Z" fill="#fce0d1" stroke="#fce0d1" stroke-width="1.51"/><path d="M865,1122L776,1363L991,1309Z" fill="#b4b4bf" stroke="#b4b4bf" stroke-width="1.51"/><path d="M853,264L845,390L961,385Z" fill="#f9bb9e" stroke="#f9bb9e" stroke-width="1.51"/><path d="M852,1508L936,1583L972,1477Z" fill="#9e96b1" stroke="#9e96b1" stroke-width="1.51"/><path d="M838,145L959,220L980,126Z" fill="#eea087" stroke="#eea087" stroke-width="1.51"/><path d="M838,145L853,264L959,220Z" fill="#f1a48a" stroke="#f1a48a" stroke-width="1.51"/><path d="M715,1169L776,1363L865,1122Z" fill="#bcb3b8" stroke="#bcb3b8" stroke-width="1.51"/><path d="M845,390L820,610L928,546Z" fill="#fcd1ba" stroke="#fcd1ba" stroke-width="1.51"/><path d="M852,1508L818,1571L936,1583Z" fill="#9a8da5" stroke="#9a8da5" stroke-width="1.51"/><path d="M715,1169L694,1285L776,1363Z" fill="#b4a7ae" stroke="#b4a7ae" stroke-width="1.51"/><path d="M867,967L865,1122L928,1043Z" fill="#d6cfcd" stroke="#d6cfcd" stroke-width="1.51"/><path d="M545,1596L350,1672L671,1618Z" fill="#8f6475" stroke="#8f6475" stroke-width="1.51"/><path d="M549,-216L691,-176L808,-225Z" fill="#b75e52" stroke="#b75e52" stroke-width="1.51"/><path d="M788,-61L735,102L838,145Z" fill="#e3846e" stroke="#e3846e" stroke-width="1.51"/><path d="M693,610L820,610L845,390Z" fill="#fcccb4" stroke="#fcccb4" stroke-width="1.51"/><path d="M654,400L693,610L845,390Z" fill="#f9bfa2" stroke="#f9bfa2" stroke-width="1.51"/><path d="M776,1363L735,1513L852,1508Z" fill="#a495aa" stroke="#a495aa" stroke-width="1.51"/><path d="M664,758L808,865L853,705Z" fill="#f5d6c8" stroke="#f5d6c8" stroke-width="1.51"/><path d="M714,1035L715,1169L865,1122Z" fill="#cdc0bd" stroke="#cdc0bd" stroke-width="1.51"/><path d="M714,1035L865,1122L867,967Z" fill="#d7c9c5" stroke="#d7c9c5" stroke-width="1.51"/><path d="M808,865L714,1035L867,967Z" fill="#e3cec7" stroke="#e3cec7" stroke-width="1.51"/><path d="M654,400L845,390L853,264Z" fill="#f7b394" stroke="#f7b394" stroke-width="1.51"/><path d="M691,-176L788,-61L808,-225Z" fill="#c4695c" stroke="#c4695c" stroke-width="1.51"/><path d="M820,610L693,610L853,705Z" fill="#fbd4c2" stroke="#fbd4c2" stroke-width="1.51"/><path d="M693,610L664,758L853,705Z" fill="#fad3c2" stroke="#fad3c2" stroke-width="1.51"/><path d="M838,145L735,102L853,264Z" fill="#ed977c" stroke="#ed977c" stroke-width="1.51"/><path d="M735,102L630,269L853,264Z" fill="#ee987b" stroke="#ee987b" stroke-width="1.51"/><path d="M630,269L654,400L853,264Z" fill="#f4a786" stroke="#f4a786" stroke-width="1.51"/><path d="M735,1513L818,1571L852,1508Z" fill="#9e8ca3" stroke="#9e8ca3" stroke-width="1.51"/><path d="M678,882L714,1035L808,865Z" fill="#e7cbc1" stroke="#e7cbc1" stroke-width="1.51"/><path d="M671,-3L735,102L788,-61Z" fill="#de7863" stroke="#de7863" stroke-width="1.51"/><path d="M664,758L678,882L808,865Z" fill="#f0cec1" stroke="#f0cec1" stroke-width="1.51"/><path d="M735,1513L671,1618L818,1571Z" fill="#9a8295" stroke="#9a8295" stroke-width="1.51"/><path d="M691,-176L671,-3L788,-61Z" fill="#d36b5a" stroke="#d36b5a" stroke-width="1.51"/><path d="M694,1285L497,1442L735,1513Z" fill="#a78e9d" stroke="#a78e9d" stroke-width="1.51"/><path d="M694,1285L735,1513L776,1363Z" fill="#a99aa8" stroke="#a99aa8" stroke-width="1.51"/><path d="M654,400L538,434L693,610Z" fill="#f8b79a" stroke="#f8b79a" stroke-width="1.51"/><path d="M545,1596L671,1618L735,1513Z" fill="#99798a" stroke="#99798a" stroke-width="1.51"/><path d="M497,1442L545,1596L735,1513Z" fill="#9e7c90" stroke="#9e7c90" stroke-width="1.51"/><path d="M671,-3L558,89L735,102Z" fill="#e07960" stroke="#e07960" stroke-width="1.51"/><path d="M558,89L630,269L735,102Z" fill="#e78569" stroke="#e78569" stroke-width="1.51"/><path d="M543,-38L671,-3L691,-176Z" fill="#d26452" stroke="#d26452" stroke-width="1.51"/><path d="M538,434L501,549L693,610Z" fill="#f7b89e" stroke="#f7b89e" stroke-width="1.51"/><path d="M474,1321L497,1442L694,1285Z" fill="#aa8e99" stroke="#aa8e99" stroke-width="1.51"/><path d="M678,882L503,1051L714,1035Z" fill="#ddbeb3" stroke="#ddbeb3" stroke-width="1.51"/><path d="M488,1193L694,1285L715,1169Z" fill="#bca6a7" stroke="#bca6a7" stroke-width="1.51"/><path d="M714,1035L503,1051L715,1169Z" fill="#d0b7b0" stroke="#d0b7b0" stroke-width="1.51"/><path d="M503,1051L488,1193L715,1169Z" fill="#c7aaa7" stroke="#c7aaa7" stroke-width="1.51"/><path d="M496,860L503,1051L678,882Z" fill="#e3baaf" stroke="#e3baaf" stroke-width="1.51"/><path d="M549,-216L543,-38L691,-176Z" fill="#c15a4d" stroke="#c15a4d" stroke-width="1.51"/><path d="M508,719L664,758L693,610Z" fill="#f9c9b6" stroke="#f9c9b6" stroke-width="1.51"/><path d="M501,549L508,719L693,610Z" fill="#f7bea9" stroke="#f7bea9" stroke-width="1.51"/><path d="M488,1193L474,1321L694,1285Z" fill="#b2989d" stroke="#b2989d" stroke-width="1.51"/><path d="M664,758L496,860L678,882Z" fill="#efc5b6" stroke="#efc5b6" stroke-width="1.51"/><path d="M630,269L543,317L654,400Z" fill="#f2a17e" stroke="#f2a17e" stroke-width="1.51"/><path d="M508,719L496,860L664,758Z" fill="#f2c2b2" stroke="#f2c2b2" stroke-width="1.51"/><path d="M543,-38L558,89L671,-3Z" fill="#d96b57" stroke="#d96b57" stroke-width="1.51"/><path d="M543,317L538,434L654,400Z" fill="#f3a585" stroke="#f3a585" stroke-width="1.51"/><path d="M558,89L543,317L630,269Z" fill="#ea8b6d" stroke="#ea8b6d" stroke-width="1.51"/><path d="M496,860L382,983L503,1051Z" fill="#dcada5" stroke="#dcada5" stroke-width="1.51"/><path d="M501,549L433,601L508,719Z" fill="#f4b5a0" stroke="#f4b5a0" stroke-width="1.51"/><path d="M393,324L538,434L543,317Z" fill="#ee9879" stroke="#ee9879" stroke-width="1.51"/><path d="M353,115L393,324L543,317Z" fill="#e58064" stroke="#e58064" stroke-width="1.51"/><path d="M497,1442L408,1475L545,1596Z" fill="#9d7389" stroke="#9d7389" stroke-width="1.51"/><path d="M422,-48L543,-38L549,-216Z" fill="#c55348" stroke="#c55348" stroke-width="1.51"/><path d="M350,-178L422,-48L549,-216Z" fill="#b94841" stroke="#b94841" stroke-width="1.51"/><path d="M353,115L543,317L558,89Z" fill="#e1785e" stroke="#e1785e" stroke-width="1.51"/><path d="M543,-38L422,-48L558,89Z" fill="#d35f4e" stroke="#d35f4e" stroke-width="1.51"/><path d="M422,-48L353,115L558,89Z" fill="#d4604e" stroke="#d4604e" stroke-width="1.51"/><path d="M408,1475L350,1672L545,1596Z" fill="#926276" stroke="#926276" stroke-width="1.51"/><path d="M393,324L354,380L538,434Z" fill="#ec9477" stroke="#ec9477" stroke-width="1.51"/><path d="M354,380L501,549L538,434Z" fill="#f0a287" stroke="#f0a287" stroke-width="1.51"/><path d="M392,1191L384,1311L474,1321Z" fill="#ae8990" stroke="#ae8990" stroke-width="1.51"/><path d="M392,1191L474,1321L488,1193Z" fill="#b59296" stroke="#b59296" stroke-width="1.51"/><path d="M364,898L382,983L496,860Z" fill="#e1aca3" stroke="#e1aca3" stroke-width="1.51"/><path d="M369,688L364,898L496,860Z" fill="#eab0a4" stroke="#eab0a4" stroke-width="1.51"/><path d="M474,1321L408,1475L497,1442Z" fill="#a37c8c" stroke="#a37c8c" stroke-width="1.51"/><path d="M354,380L433,601L501,549Z" fill="#f1a68e" stroke="#f1a68e" stroke-width="1.51"/><path d="M392,1191L488,1193L503,1051Z" fill="#c39e9d" stroke="#c39e9d" stroke-width="1.51"/><path d="M382,983L392,1191L503,1051Z" fill="#cba19d" stroke="#cba19d" stroke-width="1.51"/><path d="M369,688L496,860L508,719Z" fill="#f0b8a9" stroke="#f0b8a9" stroke-width="1.51"/><path d="M433,601L369,688L508,719Z" fill="#f2b4a2" stroke="#f2b4a2" stroke-width="1.51"/><path d="M384,1311L408,1475L474,1321Z" fill="#a57e8b" stroke="#a57e8b" stroke-width="1.51"/><path d="M81,1615L-44,1676L350,1672Z" fill="#7c3d54" stroke="#7c3d54" stroke-width="1.51"/><path d="M279,1492L237,1587L350,1672Z" fill="#8c546b" stroke="#8c546b" stroke-width="1.51"/><path d="M274,709L364,898L369,688Z" fill="#ebaa9e" stroke="#ebaa9e" stroke-width="1.51"/><path d="M382,983L236,1131L392,1191Z" fill="#c59694" stroke="#c59694" stroke-width="1.51"/><path d="M353,115L210,247L393,324Z" fill="#dd7058" stroke="#dd7058" stroke-width="1.51"/><path d="M384,1311L279,1492L408,1475Z" fill="#9f7083" stroke="#9f7083" stroke-width="1.51"/><path d="M279,1492L350,1672L408,1475Z" fill="#935f76" stroke="#935f76" stroke-width="1.51"/><path d="M203,-17L353,115L422,-48Z" fill="#cb4d42" stroke="#cb4d42" stroke-width="1.51"/><path d="M238,615L369,688L433,601Z" fill="#eea896" stroke="#eea896" stroke-width="1.51"/><path d="M354,380L238,615L433,601Z" fill="#eea089" stroke="#eea089" stroke-width="1.51"/><path d="M350,-178L203,-17L422,-48Z" fill="#c03e3b" stroke="#c03e3b" stroke-width="1.51"/><path d="M126,-150L197,-128L350,-178Z" fill="#ac2f33" stroke="#ac2f33" stroke-width="1.51"/><path d="M197,-128L203,-17L350,-178Z" fill="#b63535" stroke="#b63535" stroke-width="1.51"/><path d="M252,1283L279,1492L384,1311Z" fill="#a27382" stroke="#a27382" stroke-width="1.51"/><path d="M252,1283L384,1311L392,1191Z" fill="#ad838b" stroke="#ad838b" stroke-width="1.51"/><path d="M183,379L238,615L354,380Z" fill="#e78e78" stroke="#e78e78" stroke-width="1.51"/><path d="M274,709L285,926L364,898Z" fill="#e3a59b" stroke="#e3a59b" stroke-width="1.51"/><path d="M209,988L236,1131L382,983Z" fill="#cb9692" stroke="#cb9692" stroke-width="1.51"/><path d="M364,898L285,926L382,983Z" fill="#dca49b" stroke="#dca49b" stroke-width="1.51"/><path d="M210,247L354,380L393,324Z" fill="#e47f64" stroke="#e47f64" stroke-width="1.51"/><path d="M236,1131L252,1283L392,1191Z" fill="#b4868b" stroke="#b4868b" stroke-width="1.51"/><path d="M238,615L274,709L369,688Z" fill="#eca596" stroke="#eca596" stroke-width="1.51"/><path d="M285,926L209,988L382,983Z" fill="#d59d96" stroke="#d59d96" stroke-width="1.51"/><path d="M237,1587L81,1615L350,1672Z" fill="#84495f" stroke="#84495f" stroke-width="1.51"/><path d="M203,-17L186,94L353,115Z" fill="#cb4d41" stroke="#cb4d41" stroke-width="1.51"/><path d="M210,247L183,379L354,380Z" fill="#e17c63" stroke="#e17c63" stroke-width="1.51"/><path d="M186,94L210,247L353,115Z" fill="#d35b4a" stroke="#d35b4a" stroke-width="1.51"/><path d="M95,753L37,827L209,988Z" fill="#d9938e" stroke="#d9938e" stroke-width="1.51"/><path d="M183,379L109,547L238,615Z" fill="#e58f7c" stroke="#e58f7c" stroke-width="1.51"/><path d="M236,1131L124,1206L252,1283Z" fill="#b07e85" stroke="#b07e85" stroke-width="1.51"/><path d="M252,1283L51,1318L279,1492Z" fill="#9d6a7b" stroke="#9d6a7b" stroke-width="1.51"/><path d="M51,1318L43,1520L279,1492Z" fill="#945a73" stroke="#945a73" stroke-width="1.51"/><path d="M274,709L95,753L285,926Z" fill="#e39f96" stroke="#e39f96" stroke-width="1.51"/><path d="M95,753L209,988L285,926Z" fill="#da9993" stroke="#da9993" stroke-width="1.51"/><path d="M209,988L133,1040L236,1131Z" fill="#c58d8c" stroke="#c58d8c" stroke-width="1.51"/><path d="M43,1520L237,1587L279,1492Z" fill="#8e536e" stroke="#8e536e" stroke-width="1.51"/><path d="M238,615L95,753L274,709Z" fill="#e89e92" stroke="#e89e92" stroke-width="1.51"/><path d="M124,1206L51,1318L252,1283Z" fill="#a4717d" stroke="#a4717d" stroke-width="1.51"/><path d="M43,1520L81,1615L237,1587Z" fill="#864862" stroke="#864862" stroke-width="1.51"/><path d="M109,547L95,753L238,615Z" fill="#e59689" stroke="#e59689" stroke-width="1.51"/><path d="M133,1040L124,1206L236,1131Z" fill="#ba8587" stroke="#ba8587" stroke-width="1.51"/><path d="M56,367L109,547L183,379Z" fill="#df7e6a" stroke="#df7e6a" stroke-width="1.51"/><path d="M47,78L77,274L186,94Z" fill="#ca4c42" stroke="#ca4c42" stroke-width="1.51"/><path d="M70,20L186,94L203,-17Z" fill="#c33e3a" stroke="#c33e3a" stroke-width="1.51"/><path d="M197,-128L126,-150L203,-17Z" fill="#b32d32" stroke="#b32d32" stroke-width="1.51"/><path d="M126,-150L70,20L203,-17Z" fill="#ba2c32" stroke="#ba2c32" stroke-width="1.51"/><path d="M37,827L133,1040L209,988Z" fill="#d08f8d" stroke="#d08f8d" stroke-width="1.51"/><path d="M186,94L77,274L210,247Z" fill="#d25c4c" stroke="#d25c4c" stroke-width="1.51"/><path d="M77,274L183,379L210,247Z" fill="#da6e58" stroke="#da6e58" stroke-width="1.51"/><path d="M77,274L56,367L183,379Z" fill="#da705b" stroke="#da705b" stroke-width="1.51"/><path d="M70,20L47,78L186,94Z" fill="#c23e39" stroke="#c23e39" stroke-width="1.51"/><path d="M-90,909L-96,967L37,827Z" fill="#c88586" stroke="#c88586" stroke-width="1.51"/><path d="M-41,1490L43,1520L51,1318Z" fill="#8f516d" stroke="#8f516d" stroke-width="1.51"/><path d="M-55,1364L-41,1490L51,1318Z" fill="#8f566f" stroke="#8f566f" stroke-width="1.51"/><path d="M47,78L-73,168L77,274Z" fill="#c74940" stroke="#c74940" stroke-width="1.51"/><path d="M-92,733L95,753L109,547Z" fill="#e08f86" stroke="#e08f86" stroke-width="1.51"/><path d="M-71,532L-92,733L109,547Z" fill="#da867c" stroke="#da867c" stroke-width="1.51"/><path d="M56,367L-71,532L109,547Z" fill="#dd7d6d" stroke="#dd7d6d" stroke-width="1.51"/><path d="M-113,-28L70,20L126,-150Z" fill="#b31c2c" stroke="#b31c2c" stroke-width="1.51"/><path d="M-112,-179L-113,-28L126,-150Z" fill="#a01228" stroke="#a01228" stroke-width="1.51"/><path d="M37,827L-96,967L133,1040Z" fill="#cd8786" stroke="#cd8786" stroke-width="1.51"/><path d="M-68,1151L124,1206L133,1040Z" fill="#b57b81" stroke="#b57b81" stroke-width="1.51"/><path d="M-96,967L-68,1151L133,1040Z" fill="#b97d81" stroke="#b97d81" stroke-width="1.51"/><path d="M-68,1151L51,1318L124,1206Z" fill="#a66e7a" stroke="#a66e7a" stroke-width="1.51"/><path d="M-101,440L-71,532L56,367Z" fill="#d37466" stroke="#d37466" stroke-width="1.51"/><path d="M-92,733L37,827L95,753Z" fill="#da8e89" stroke="#da8e89" stroke-width="1.51"/><path d="M43,1520L-44,1676L81,1615Z" fill="#7e3b57" stroke="#7e3b57" stroke-width="1.51"/><path d="M-119,273L56,367L77,274Z" fill="#d16151" stroke="#d16151" stroke-width="1.51"/><path d="M-73,168L-119,273L77,274Z" fill="#c65347" stroke="#c65347" stroke-width="1.51"/><path d="M-68,1151L-55,1364L51,1318Z" fill="#986474" stroke="#986474" stroke-width="1.51"/><path d="M-113,-28L47,78L70,20Z" fill="#b82b31" stroke="#b82b31" stroke-width="1.51"/><path d="M-41,1490L-44,1676L43,1520Z" fill="#7f405d" stroke="#7f405d" stroke-width="1.51"/><path d="M-119,273L-101,440L56,367Z" fill="#cd6757" stroke="#cd6757" stroke-width="1.51"/><path d="M-113,-28L-73,168L47,78Z" fill="#b63335" stroke="#b63335" stroke-width="1.51"/><path d="M-92,733L-90,909L37,827Z" fill="#ce8886" stroke="#ce8886" stroke-width="1.51"/><path d="M-92,733L-208,876L-90,909Z" fill="#c18384" stroke="#c18384" stroke-width="1.51"/><path d="M-113,-28L-276,84L-73,168Z" fill="#a92f33" stroke="#a92f33" stroke-width="1.51"/><path d="M-199,610L-92,733L-71,532Z" fill="#cc827c" stroke="#cc827c" stroke-width="1.51"/><path d="M-96,967L-192,1057L-68,1151Z" fill="#aa767e" stroke="#aa767e" stroke-width="1.51"/><path d="M-68,1151L-253,1266L-55,1364Z" fill="#8d6173" stroke="#8d6173" stroke-width="1.51"/><path d="M-55,1364L-189,1471L-41,1490Z" fill="#814c6a" stroke="#814c6a" stroke-width="1.51"/><path d="M-203,1674L-44,1676L-41,1490Z" fill="#6e3552" stroke="#6e3552" stroke-width="1.51"/><path d="M-189,1471L-203,1674L-41,1490Z" fill="#713d5d" stroke="#713d5d" stroke-width="1.51"/><path d="M-212,745L-208,876L-92,733Z" fill="#c18385" stroke="#c18385" stroke-width="1.51"/><path d="M-240,1129L-253,1266L-68,1151Z" fill="#906775" stroke="#906775" stroke-width="1.51"/><path d="M-253,1266L-189,1471L-55,1364Z" fill="#7d526c" stroke="#7d526c" stroke-width="1.51"/><path d="M-119,273L-270,394L-101,440Z" fill="#bf6356" stroke="#bf6356" stroke-width="1.51"/><path d="M-192,1057L-240,1129L-68,1151Z" fill="#9d707a" stroke="#9d707a" stroke-width="1.51"/><path d="M-239,239L-119,273L-73,168Z" fill="#b74c44" stroke="#b74c44" stroke-width="1.51"/><path d="M-276,84L-239,239L-73,168Z" fill="#ac3e3b" stroke="#ac3e3b" stroke-width="1.51"/><path d="M-101,440L-199,610L-71,532Z" fill="#cb7b71" stroke="#cb7b71" stroke-width="1.51"/><path d="M-255,-81L-113,-28L-112,-179Z" fill="#950e27" stroke="#950e27" stroke-width="1.51"/><path d="M-270,394L-199,610L-101,440Z" fill="#c07168" stroke="#c07168" stroke-width="1.51"/><path d="M-199,610L-212,745L-92,733Z" fill="#c68583" stroke="#c68583" stroke-width="1.51"/><path d="M-208,876L-96,967L-90,909Z" fill="#bb8083" stroke="#bb8083" stroke-width="1.51"/><path d="M-208,876L-192,1057L-96,967Z" fill="#b07b80" stroke="#b07b80" stroke-width="1.51"/><path d="M-223,-215L-255,-81L-112,-179Z" fill="#840824" stroke="#840824" stroke-width="1.51"/><path d="M-239,239L-270,394L-119,273Z" fill="#b5574c" stroke="#b5574c" stroke-width="1.51"/><path d="M-255,-81L-276,84L-113,-28Z" fill="#9a1c2b" stroke="#9a1c2b" stroke-width="1.51"/><path d="M-208,876L-240,1129L-192,1057Z" fill="#a3757d" stroke="#a3757d" stroke-width="1.51"/><path d="M-253,1266L-203,1674L-189,1471Z" fill="#6f4365" stroke="#6f4365" stroke-width="1.51"/><path d="M-270,394L-212,745L-199,610Z" fill="#be7975" stroke="#be7975" stroke-width="1.51"/><path d="M-212,745L-240,1129L-208,876Z" fill="#af7c81" stroke="#af7c81" stroke-width="1.51"/><path d="M-270,394L-240,1129L-212,745Z" fill="#b98183" stroke="#b98183" stroke-width="1.51"/><path d="M-270,394L-253,1266L-240,1129Z" fill="#a87980" stroke="#a87980" stroke-width="1.51"/><path d="M-276,84L-270,394L-239,239Z" fill="#aa4943" stroke="#aa4943" stroke-width="1.51"/></svg>